# xmcd
#
# Track frame offsets:
#	150
#	13392
#	26187
#	43178
#	54389
#	64252
#	74624
#	95369
#	107309
#	119821
#	135133
#
# Disc length: 1958 seconds
#
# Revision: 0
# Processed by: cddbd v1.5.2PL0 Copyright (c) Steve Scherf et al.
# Submitted via: audiograbber 1.83.01
#
DISCID=9d07a40b
DTITLE=Jerry Lee Lewis - Sometimes A Memory Ain't Enough
DYEAR=1973
DGENRE=Country
TTITLE0=Sometimes A Memory Ain't Enough
TTITLE1=Ride Me Down Easy 
TTITLE2=Mama's Hands
TTITLE3=What My Woman Can't Do
TTITLE4=My Cricket And Me 
TTITLE5=I'm Left, You're Right, She's Gone
TTITLE6=Honky Tonk Wine 
TTITLE7=Falling To The Bottom 
TTITLE8=I Think I Need To Pray
TTITLE9=The Morning After Baby Let Me Down
TTITLE10=Keep Me From Blowing Away
EXTD=
EXTT0=
EXTT1=
EXTT2=
EXTT3=
EXTT4=
EXTT5=
EXTT6=
EXTT7=
EXTT8=
EXTT9=
EXTT10=
PLAYORDER=
